<svg viewBox="0 0 600 400" xmlns="http://www.w3.org/2000/svg">
<g transform="translate(72, 364)">
<g>
<g>
<path d="M0,-340 L0,-340 L4.8,-327.76 L9.6,-315.76727 L14.4,-304.02182 L19.2,-292.52365 L24,-281.27274 L28.8,-270.2691 L33.6,-259.51273 L38.4,-249.00363 L43.2,-238.74182 L48,-228.72728 L52.8,-218.96 L57.6,-209.44 L62.4,-200.16727 L67.2,-191.14182 L72,-182.36363 L76.8,-173.83273 L81.6,-165.54909 L86.4,-157.51273 L91.2,-149.72363 L96,-142.18182 L100.8,-134.88727 L105.6,-127.84 L110.4,-121.04 L115.2,-114.487274 L120,-108.181816 L124.8,-102.123634 L129.6,-96.31273 L134.4,-90.74909 L139.2,-85.432724 L144,-80.36364 L148.8,-75.54182 L153.6,-70.96727 L158.4,-66.64 L163.2,-62.56 L168,-58.727272 L172.8,-55.14182 L177.6,-51.803635 L182.4,-48.712727 L187.2,-45.86909 L192,-43.272728 L196.8,-40.923637 L201.6,-38.82182 L206.4,-36.967274 L211.2,-35.36 L216,-34 L220.8,-32.88727 L225.6,-32.02182 L230.4,-31.403637 L235.2,-31.032728 L240,-30.90909 L244.8,-31.032728 L249.6,-31.403637 L254.4,-32.02182 L259.2,-32.88727 L264,-34 L268.8,-35.36 L273.6,-36.967274 L278.4,-38.82182 L283.2,-40.923637 L288,-43.272728 L292.8,-45.86909 L297.6,-48.712727 L302.4,-51.803635 L307.2,-55.14182 L312,-58.727272 L316.8,-62.56 L321.6,-66.64 L326.4,-70.96727 L331.2,-75.54182 L336,-80.36364 L340.8,-85.432724 L345.6,-90.74909 L350.4,-96.31273 L355.2,-102.123634 L360,-108.181816 L364.8,-114.487274 L369.6,-121.04 L374.4,-127.84 L379.2,-134.88727 L384,-142.18182 L388.8,-149.72363 L393.6,-157.51273 L398.4,-165.54909 L403.2,-173.83273 L408,-182.36363 L412.8,-191.14182 L417.6,-200.16727 L422.4,-209.44 L427.2,-218.96 L432,-228.72728 L436.8,-238.74182 L441.6,-249.00363 L446.4,-259.51273 L451.2,-270.2691 L456,-281.27274 L460.8,-292.52365 L465.6,-304.02182 L470.4,-315.76727 L475.2,-327.76 L480,-340" fill="none" stroke="burlywood" stroke-linejoin="round" stroke-width="2"/>
</g>
</g>
<g>
<g>
<line stroke="black" stroke-width="1" x1="0" x2="0" y1="0" y2="10"/>
<line stroke="black" stroke-width="1" x1="120" x2="120" y1="0" y2="10"/>
<line stroke="black" stroke-width="1" x1="240" x2="240" y1="0" y2="10"/>
<line stroke="black" stroke-width="1" x1="360" x2="360" y1="0" y2="10"/>
<line stroke="black" stroke-width="1" x1="480" x2="480" y1="0" y2="10"/>
</g>
<line stroke="black" stroke-width="1" x1="0" x2="480" y1="0" y2="0"/>
<g>
<text font-size="12" text-anchor="middle" x="0" y="20">
-1
</text>
<text font-size="12" text-anchor="middle" x="120" y="20">
-0.5
</text>
<text font-size="12" text-anchor="middle" x="240" y="20">
0
</text>
<text font-size="12" text-anchor="middle" x="360" y="20">
0.5
</text>
<text font-size="12" text-anchor="middle" x="480" y="20">
1
</text>
</g>
<text font-size="12" text-anchor="middle" x="240" y="30">
Some varying variable
</text>
</g>
<g>
<g>
<line stroke="black" stroke-width="1" x1="0" x2="-10" y1="-30.909090909090907" y2="-30.909090909090907"/>
<line stroke="black" stroke-width="1" x1="0" x2="-10" y1="-92.72727272727273" y2="-92.72727272727273"/>
<line stroke="black" stroke-width="1" x1="0" x2="-10" y1="-154.54545454545453" y2="-154.54545454545453"/>
<line stroke="black" stroke-width="1" x1="0" x2="-10" y1="-216.36363636363632" y2="-216.36363636363632"/>
<line stroke="black" stroke-width="1" x1="0" x2="-10" y1="-278.1818181818182" y2="-278.1818181818182"/>
<line stroke="black" stroke-width="1" x1="0" x2="-10" y1="-340" y2="-340"/>
</g>
<line stroke="black" stroke-width="1" x1="0" x2="0" y1="0" y2="-340"/>
<g>
<text dominant-baseline="middle" font-size="12" text-anchor="end" x="-15" y="-30.909090909090907">
0
</text>
<text dominant-baseline="middle" font-size="12" text-anchor="end" x="-15" y="-92.72727272727273">
0.2
</text>
<text dominant-baseline="middle" font-size="12" text-anchor="end" x="-15" y="-154.54545454545453">
0.4
</text>
<text dominant-baseline="middle" font-size="12" text-anchor="end" x="-15" y="-216.36363636363632">
0.6
</text>
<text dominant-baseline="middle" font-size="12" text-anchor="end" x="-15" y="-278.1818181818182">
0.8
</text>
<text dominant-baseline="middle" font-size="12" text-anchor="end" x="-15" y="-340">
1
</text>
</g>
<text font-size="12" text-anchor="middle" transform="rotate(-90 -36 -170)" x="-36" y="-182">
The response of something
</text>
</g>
</g>
</svg>